<mxfile host="Electron" modified="2023-05-25T21:01:21.710Z" agent="Mozilla/5.0 (Windows NT 10.0; Win64; x64) AppleWebKit/537.36 (KHTML, like Gecko) draw.io/21.2.8 Chrome/112.0.5615.165 Electron/24.2.0 Safari/537.36" etag="64tNN87xNOc7zhce0BJR" version="21.2.8" type="device">
  <diagram name="PÃ¡gina-1" id="8A34iGCpDNREY9lOanAp">
    <mxGraphModel dx="880" dy="532" grid="1" gridSize="10" guides="1" tooltips="1" connect="1" arrows="1" fold="1" page="1" pageScale="1" pageWidth="827" pageHeight="1169" math="0" shadow="0">
      <root>
        <mxCell id="0" />
        <mxCell id="1" parent="0" />
        <mxCell id="DObmzOYxZY19moNvqjmo-93" value="&lt;font style=&quot;font-size: 36px;&quot;&gt;Abstract Factory&lt;/font&gt;" style="text;html=1;align=left;verticalAlign=middle;resizable=0;points=[];autosize=1;fillColor=#d5e8d4;strokeColor=#82b366;gradientColor=#97d077;" parent="1" vertex="1">
          <mxGeometry x="17" y="41" width="290" height="60" as="geometry" />
        </mxCell>
        <mxCell id="FLtjZMITu_ACUxYOGcMS-1" value="Mouse" style="swimlane;fontStyle=1;align=center;verticalAlign=top;childLayout=stackLayout;horizontal=1;startSize=26;horizontalStack=0;resizeParent=1;resizeParentMax=0;resizeLast=0;collapsible=1;marginBottom=0;whiteSpace=wrap;html=1;fillColor=#e1d5e7;strokeColor=#9673a6;" parent="1" vertex="1">
          <mxGeometry x="529" y="270" width="240" height="140" as="geometry" />
        </mxCell>
        <mxCell id="FLtjZMITu_ACUxYOGcMS-2" value="- marca: String&lt;br&gt;- modelo: String" style="text;strokeColor=none;fillColor=none;align=left;verticalAlign=top;spacingLeft=4;spacingRight=4;overflow=hidden;rotatable=0;points=[[0,0.5],[1,0.5]];portConstraint=eastwest;whiteSpace=wrap;html=1;" parent="FLtjZMITu_ACUxYOGcMS-1" vertex="1">
          <mxGeometry y="26" width="240" height="34" as="geometry" />
        </mxCell>
        <mxCell id="FLtjZMITu_ACUxYOGcMS-3" value="" style="line;strokeWidth=1;fillColor=none;align=left;verticalAlign=middle;spacingTop=-1;spacingLeft=3;spacingRight=3;rotatable=0;labelPosition=right;points=[];portConstraint=eastwest;strokeColor=inherit;" parent="FLtjZMITu_ACUxYOGcMS-1" vertex="1">
          <mxGeometry y="60" width="240" height="8" as="geometry" />
        </mxCell>
        <mxCell id="FLtjZMITu_ACUxYOGcMS-4" value="&lt;div&gt;+ getMarca(): String&lt;/div&gt;&lt;div&gt;+ setMarca(marca: String): void&lt;/div&gt;&lt;div&gt;+ getModelo(): String&lt;/div&gt;&lt;div&gt;+ setModelo(modelo: String): void&lt;/div&gt;" style="text;strokeColor=none;fillColor=none;align=left;verticalAlign=top;spacingLeft=4;spacingRight=4;overflow=hidden;rotatable=0;points=[[0,0.5],[1,0.5]];portConstraint=eastwest;whiteSpace=wrap;html=1;" parent="FLtjZMITu_ACUxYOGcMS-1" vertex="1">
          <mxGeometry y="68" width="240" height="72" as="geometry" />
        </mxCell>
        <mxCell id="FLtjZMITu_ACUxYOGcMS-6" value="Teclado" style="swimlane;fontStyle=1;align=center;verticalAlign=top;childLayout=stackLayout;horizontal=1;startSize=26;horizontalStack=0;resizeParent=1;resizeParentMax=0;resizeLast=0;collapsible=1;marginBottom=0;whiteSpace=wrap;html=1;fillColor=#e1d5e7;strokeColor=#9673a6;" parent="1" vertex="1">
          <mxGeometry x="529" y="560" width="240" height="140" as="geometry" />
        </mxCell>
        <mxCell id="FLtjZMITu_ACUxYOGcMS-7" value="- marca: String&lt;br&gt;- modelo: String" style="text;strokeColor=none;fillColor=none;align=left;verticalAlign=top;spacingLeft=4;spacingRight=4;overflow=hidden;rotatable=0;points=[[0,0.5],[1,0.5]];portConstraint=eastwest;whiteSpace=wrap;html=1;" parent="FLtjZMITu_ACUxYOGcMS-6" vertex="1">
          <mxGeometry y="26" width="240" height="34" as="geometry" />
        </mxCell>
        <mxCell id="FLtjZMITu_ACUxYOGcMS-8" value="" style="line;strokeWidth=1;fillColor=none;align=left;verticalAlign=middle;spacingTop=-1;spacingLeft=3;spacingRight=3;rotatable=0;labelPosition=right;points=[];portConstraint=eastwest;strokeColor=inherit;" parent="FLtjZMITu_ACUxYOGcMS-6" vertex="1">
          <mxGeometry y="60" width="240" height="8" as="geometry" />
        </mxCell>
        <mxCell id="FLtjZMITu_ACUxYOGcMS-9" value="&lt;div&gt;+ getMarca(): String&lt;/div&gt;&lt;div&gt;+ setMarca(marca: String): void&lt;/div&gt;&lt;div&gt;+ getModelo(): String&lt;/div&gt;&lt;div&gt;+ setModelo(modelo: String): void&lt;/div&gt;" style="text;strokeColor=none;fillColor=none;align=left;verticalAlign=top;spacingLeft=4;spacingRight=4;overflow=hidden;rotatable=0;points=[[0,0.5],[1,0.5]];portConstraint=eastwest;whiteSpace=wrap;html=1;" parent="FLtjZMITu_ACUxYOGcMS-6" vertex="1">
          <mxGeometry y="68" width="240" height="72" as="geometry" />
        </mxCell>
        <mxCell id="FLtjZMITu_ACUxYOGcMS-14" style="edgeStyle=orthogonalEdgeStyle;rounded=0;orthogonalLoop=1;jettySize=auto;html=1;endArrow=block;endFill=0;" parent="1" source="FLtjZMITu_ACUxYOGcMS-10" edge="1">
          <mxGeometry relative="1" as="geometry">
            <mxPoint x="572" y="420" as="targetPoint" />
          </mxGeometry>
        </mxCell>
        <mxCell id="FLtjZMITu_ACUxYOGcMS-10" value="&lt;b&gt;MouseMicrosoft&lt;/b&gt;" style="html=1;whiteSpace=wrap;fillColor=#d5e8d4;strokeColor=#82b366;" parent="1" vertex="1">
          <mxGeometry x="517" y="470" width="110" height="50" as="geometry" />
        </mxCell>
        <mxCell id="FLtjZMITu_ACUxYOGcMS-15" style="edgeStyle=orthogonalEdgeStyle;rounded=0;orthogonalLoop=1;jettySize=auto;html=1;endArrow=block;endFill=0;" parent="1" source="FLtjZMITu_ACUxYOGcMS-11" edge="1">
          <mxGeometry relative="1" as="geometry">
            <mxPoint x="726" y="420" as="targetPoint" />
          </mxGeometry>
        </mxCell>
        <mxCell id="FLtjZMITu_ACUxYOGcMS-11" value="&lt;b&gt;MouseHp&lt;/b&gt;" style="html=1;whiteSpace=wrap;fillColor=#d5e8d4;strokeColor=#82b366;" parent="1" vertex="1">
          <mxGeometry x="671" y="470" width="110" height="50" as="geometry" />
        </mxCell>
        <mxCell id="FLtjZMITu_ACUxYOGcMS-16" style="edgeStyle=orthogonalEdgeStyle;rounded=0;orthogonalLoop=1;jettySize=auto;html=1;endArrow=block;endFill=0;" parent="1" source="FLtjZMITu_ACUxYOGcMS-17" edge="1">
          <mxGeometry relative="1" as="geometry">
            <mxPoint x="572" y="710" as="targetPoint" />
          </mxGeometry>
        </mxCell>
        <mxCell id="FLtjZMITu_ACUxYOGcMS-17" value="&lt;b&gt;TecladoMicrosoft&lt;/b&gt;" style="html=1;whiteSpace=wrap;fillColor=#d5e8d4;strokeColor=#82b366;" parent="1" vertex="1">
          <mxGeometry x="517" y="760" width="110" height="50" as="geometry" />
        </mxCell>
        <mxCell id="FLtjZMITu_ACUxYOGcMS-18" style="edgeStyle=orthogonalEdgeStyle;rounded=0;orthogonalLoop=1;jettySize=auto;html=1;endArrow=block;endFill=0;" parent="1" source="FLtjZMITu_ACUxYOGcMS-19" edge="1">
          <mxGeometry relative="1" as="geometry">
            <mxPoint x="726" y="710" as="targetPoint" />
          </mxGeometry>
        </mxCell>
        <mxCell id="FLtjZMITu_ACUxYOGcMS-19" value="&lt;b&gt;TecladoHp&lt;/b&gt;" style="html=1;whiteSpace=wrap;fillColor=#d5e8d4;strokeColor=#82b366;" parent="1" vertex="1">
          <mxGeometry x="671" y="760" width="110" height="50" as="geometry" />
        </mxCell>
        <mxCell id="FLtjZMITu_ACUxYOGcMS-20" value="&amp;lt;&amp;lt;FabricaFactory&amp;gt;&amp;gt;" style="swimlane;fontStyle=1;align=center;verticalAlign=top;childLayout=stackLayout;horizontal=1;startSize=26;horizontalStack=0;resizeParent=1;resizeParentMax=0;resizeLast=0;collapsible=1;marginBottom=0;whiteSpace=wrap;html=1;fillColor=#e1d5e7;strokeColor=#9673a6;" parent="1" vertex="1">
          <mxGeometry x="17" y="270" width="240" height="70" as="geometry" />
        </mxCell>
        <mxCell id="FLtjZMITu_ACUxYOGcMS-23" value="&lt;div&gt;+ criarMouse(): Mouse&lt;/div&gt;&lt;div&gt;&lt;span style=&quot;background-color: initial;&quot;&gt;+ criarTeclado(): Teclado&lt;/span&gt;&lt;br&gt;&lt;/div&gt;" style="text;strokeColor=none;fillColor=none;align=left;verticalAlign=top;spacingLeft=4;spacingRight=4;overflow=hidden;rotatable=0;points=[[0,0.5],[1,0.5]];portConstraint=eastwest;whiteSpace=wrap;html=1;" parent="FLtjZMITu_ACUxYOGcMS-20" vertex="1">
          <mxGeometry y="26" width="240" height="44" as="geometry" />
        </mxCell>
        <mxCell id="FLtjZMITu_ACUxYOGcMS-24" style="edgeStyle=orthogonalEdgeStyle;rounded=0;orthogonalLoop=1;jettySize=auto;html=1;endArrow=block;endFill=0;" parent="1" source="FLtjZMITu_ACUxYOGcMS-25" edge="1">
          <mxGeometry relative="1" as="geometry">
            <mxPoint x="60" y="350" as="targetPoint" />
          </mxGeometry>
        </mxCell>
        <mxCell id="FLtjZMITu_ACUxYOGcMS-31" style="edgeStyle=orthogonalEdgeStyle;rounded=0;orthogonalLoop=1;jettySize=auto;html=1;entryX=0.5;entryY=1;entryDx=0;entryDy=0;endArrow=open;endFill=0;" parent="1" source="FLtjZMITu_ACUxYOGcMS-25" target="FLtjZMITu_ACUxYOGcMS-11" edge="1">
          <mxGeometry relative="1" as="geometry">
            <Array as="points">
              <mxPoint x="60" y="540" />
              <mxPoint x="726" y="540" />
            </Array>
          </mxGeometry>
        </mxCell>
        <mxCell id="FLtjZMITu_ACUxYOGcMS-33" style="edgeStyle=orthogonalEdgeStyle;rounded=0;orthogonalLoop=1;jettySize=auto;html=1;entryX=0.5;entryY=1;entryDx=0;entryDy=0;endArrow=open;endFill=0;" parent="1" source="FLtjZMITu_ACUxYOGcMS-25" target="FLtjZMITu_ACUxYOGcMS-19" edge="1">
          <mxGeometry relative="1" as="geometry">
            <Array as="points">
              <mxPoint x="60" y="830" />
              <mxPoint x="726" y="830" />
            </Array>
          </mxGeometry>
        </mxCell>
        <mxCell id="FLtjZMITu_ACUxYOGcMS-25" value="&lt;b&gt;FabricaHp&lt;/b&gt;" style="html=1;whiteSpace=wrap;fillColor=#d5e8d4;strokeColor=#82b366;" parent="1" vertex="1">
          <mxGeometry x="5" y="400" width="110" height="50" as="geometry" />
        </mxCell>
        <mxCell id="FLtjZMITu_ACUxYOGcMS-26" style="edgeStyle=orthogonalEdgeStyle;rounded=0;orthogonalLoop=1;jettySize=auto;html=1;endArrow=block;endFill=0;" parent="1" source="FLtjZMITu_ACUxYOGcMS-27" edge="1">
          <mxGeometry relative="1" as="geometry">
            <mxPoint x="214" y="350" as="targetPoint" />
          </mxGeometry>
        </mxCell>
        <mxCell id="FLtjZMITu_ACUxYOGcMS-30" style="edgeStyle=orthogonalEdgeStyle;rounded=0;orthogonalLoop=1;jettySize=auto;html=1;entryX=0;entryY=0.5;entryDx=0;entryDy=0;endArrow=open;endFill=0;" parent="1" source="FLtjZMITu_ACUxYOGcMS-27" target="FLtjZMITu_ACUxYOGcMS-10" edge="1">
          <mxGeometry relative="1" as="geometry">
            <Array as="points">
              <mxPoint x="214" y="495" />
            </Array>
          </mxGeometry>
        </mxCell>
        <mxCell id="FLtjZMITu_ACUxYOGcMS-32" style="edgeStyle=orthogonalEdgeStyle;rounded=0;orthogonalLoop=1;jettySize=auto;html=1;entryX=0;entryY=0.5;entryDx=0;entryDy=0;endArrow=open;endFill=0;" parent="1" source="FLtjZMITu_ACUxYOGcMS-27" target="FLtjZMITu_ACUxYOGcMS-17" edge="1">
          <mxGeometry relative="1" as="geometry" />
        </mxCell>
        <mxCell id="FLtjZMITu_ACUxYOGcMS-27" value="&lt;b&gt;FabricaMicrosoft&lt;/b&gt;" style="html=1;whiteSpace=wrap;fillColor=#d5e8d4;strokeColor=#82b366;" parent="1" vertex="1">
          <mxGeometry x="159" y="400" width="110" height="50" as="geometry" />
        </mxCell>
        <mxCell id="FLtjZMITu_ACUxYOGcMS-35" style="edgeStyle=orthogonalEdgeStyle;rounded=0;orthogonalLoop=1;jettySize=auto;html=1;dashed=1;endArrow=open;endFill=0;" parent="1" source="FLtjZMITu_ACUxYOGcMS-34" edge="1">
          <mxGeometry relative="1" as="geometry">
            <mxPoint x="137" y="260" as="targetPoint" />
          </mxGeometry>
        </mxCell>
        <mxCell id="FLtjZMITu_ACUxYOGcMS-36" style="edgeStyle=orthogonalEdgeStyle;rounded=0;orthogonalLoop=1;jettySize=auto;html=1;entryX=1.01;entryY=0.32;entryDx=0;entryDy=0;entryPerimeter=0;dashed=1;endArrow=open;endFill=0;" parent="1" source="FLtjZMITu_ACUxYOGcMS-34" target="FLtjZMITu_ACUxYOGcMS-4" edge="1">
          <mxGeometry relative="1" as="geometry">
            <Array as="points">
              <mxPoint x="789" y="155" />
              <mxPoint x="789" y="361" />
            </Array>
          </mxGeometry>
        </mxCell>
        <mxCell id="FLtjZMITu_ACUxYOGcMS-37" style="edgeStyle=orthogonalEdgeStyle;rounded=0;orthogonalLoop=1;jettySize=auto;html=1;entryX=1.015;entryY=0.377;entryDx=0;entryDy=0;entryPerimeter=0;dashed=1;endArrow=open;endFill=0;" parent="1" source="FLtjZMITu_ACUxYOGcMS-34" target="FLtjZMITu_ACUxYOGcMS-9" edge="1">
          <mxGeometry relative="1" as="geometry">
            <Array as="points">
              <mxPoint x="817" y="155" />
              <mxPoint x="817" y="655" />
            </Array>
          </mxGeometry>
        </mxCell>
        <mxCell id="FLtjZMITu_ACUxYOGcMS-34" value="Client (App.java)" style="html=1;whiteSpace=wrap;fillColor=#f8cecc;strokeColor=#b85450;" parent="1" vertex="1">
          <mxGeometry x="659" y="130" width="110" height="50" as="geometry" />
        </mxCell>
        <mxCell id="FLtjZMITu_ACUxYOGcMS-39" value="usa" style="text;html=1;align=center;verticalAlign=middle;resizable=0;points=[];autosize=1;strokeColor=none;fillColor=none;" parent="1" vertex="1">
          <mxGeometry x="610" y="160" width="40" height="30" as="geometry" />
        </mxCell>
        <mxCell id="FLtjZMITu_ACUxYOGcMS-40" value="usa" style="text;html=1;align=center;verticalAlign=middle;resizable=0;points=[];autosize=1;strokeColor=none;fillColor=none;" parent="1" vertex="1">
          <mxGeometry x="781" y="120" width="40" height="30" as="geometry" />
        </mxCell>
        <mxCell id="FLtjZMITu_ACUxYOGcMS-41" value="cria" style="text;html=1;align=center;verticalAlign=middle;resizable=0;points=[];autosize=1;strokeColor=none;fillColor=none;" parent="1" vertex="1">
          <mxGeometry x="64" y="453" width="40" height="30" as="geometry" />
        </mxCell>
        <mxCell id="FLtjZMITu_ACUxYOGcMS-42" value="cria" style="text;html=1;align=center;verticalAlign=middle;resizable=0;points=[];autosize=1;strokeColor=none;fillColor=none;" parent="1" vertex="1">
          <mxGeometry x="269" y="390" width="40" height="30" as="geometry" />
        </mxCell>
        <mxCell id="FLtjZMITu_ACUxYOGcMS-43" value="cria" style="text;html=1;align=center;verticalAlign=middle;resizable=0;points=[];autosize=1;strokeColor=none;fillColor=none;" parent="1" vertex="1">
          <mxGeometry x="217" y="453" width="40" height="30" as="geometry" />
        </mxCell>
        <mxCell id="FLtjZMITu_ACUxYOGcMS-44" value="implementa" style="text;html=1;align=left;verticalAlign=middle;resizable=0;points=[];autosize=1;strokeColor=none;fillColor=none;" parent="1" vertex="1">
          <mxGeometry x="67" y="350" width="90" height="30" as="geometry" />
        </mxCell>
        <mxCell id="FLtjZMITu_ACUxYOGcMS-45" value="implementa" style="text;html=1;align=left;verticalAlign=middle;resizable=0;points=[];autosize=1;strokeColor=none;fillColor=none;" parent="1" vertex="1">
          <mxGeometry x="222" y="350" width="90" height="30" as="geometry" />
        </mxCell>
        <mxCell id="FLtjZMITu_ACUxYOGcMS-46" value="extende" style="text;html=1;align=left;verticalAlign=middle;resizable=0;points=[];autosize=1;strokeColor=none;fillColor=none;" parent="1" vertex="1">
          <mxGeometry x="576" y="435" width="70" height="30" as="geometry" />
        </mxCell>
        <mxCell id="FLtjZMITu_ACUxYOGcMS-47" value="extende" style="text;html=1;align=left;verticalAlign=middle;resizable=0;points=[];autosize=1;strokeColor=none;fillColor=none;" parent="1" vertex="1">
          <mxGeometry x="731" y="435" width="70" height="30" as="geometry" />
        </mxCell>
        <mxCell id="FLtjZMITu_ACUxYOGcMS-48" value="extende" style="text;html=1;align=left;verticalAlign=middle;resizable=0;points=[];autosize=1;strokeColor=none;fillColor=none;" parent="1" vertex="1">
          <mxGeometry x="576" y="725" width="70" height="30" as="geometry" />
        </mxCell>
        <mxCell id="FLtjZMITu_ACUxYOGcMS-49" value="extende" style="text;html=1;align=left;verticalAlign=middle;resizable=0;points=[];autosize=1;strokeColor=none;fillColor=none;" parent="1" vertex="1">
          <mxGeometry x="731" y="725" width="70" height="30" as="geometry" />
        </mxCell>
        <mxCell id="FLtjZMITu_ACUxYOGcMS-50" value="&lt;div style=&quot;font-size: 16px;&quot;&gt;ImplementaÃ§Ã£o&lt;/div&gt;&lt;div style=&quot;font-size: 16px;&quot;&gt;&lt;br&gt;&lt;/div&gt;&lt;div style=&quot;font-size: 16px;&quot;&gt;&lt;font style=&quot;font-size: 16px;&quot;&gt;1 - Classe abstrata Mouse&lt;/font&gt;&lt;/div&gt;&lt;div style=&quot;font-size: 16px;&quot;&gt;&lt;font style=&quot;font-size: 16px;&quot;&gt;2 - Classe abstrata Keyboard&lt;/font&gt;&lt;/div&gt;&lt;div style=&quot;font-size: 16px;&quot;&gt;&lt;font style=&quot;font-size: 16px;&quot;&gt;3 - Interface ComputerFactory&lt;/font&gt;&lt;/div&gt;&lt;div style=&quot;font-size: 16px;&quot;&gt;&lt;font style=&quot;font-size: 16px;&quot;&gt;4 - Classe MicrosoftFactory (implementa ComputerFactory)&lt;/font&gt;&lt;/div&gt;&lt;div style=&quot;font-size: 16px;&quot;&gt;&lt;font style=&quot;font-size: 16px;&quot;&gt;5 - Classe HPFactory (implementa ComputerFactory)&lt;/font&gt;&lt;/div&gt;&lt;div style=&quot;font-size: 16px;&quot;&gt;&lt;font style=&quot;font-size: 16px;&quot;&gt;6 - Classe MicrosoftMouse (implementa Mouse)&lt;/font&gt;&lt;/div&gt;&lt;div style=&quot;font-size: 16px;&quot;&gt;&lt;font style=&quot;font-size: 16px;&quot;&gt;7 - Classe MicrosoftKeyboard (implementa Keyboard)&lt;/font&gt;&lt;/div&gt;&lt;div style=&quot;font-size: 16px;&quot;&gt;&lt;font style=&quot;font-size: 16px;&quot;&gt;8 - Classe HPMouse (implementa Mouse)&lt;/font&gt;&lt;/div&gt;&lt;div style=&quot;font-size: 16px;&quot;&gt;&lt;font style=&quot;font-size: 16px;&quot;&gt;9 - Classe HPKeyboard (implementa Keyboard)&lt;/font&gt;&lt;/div&gt;&lt;div style=&quot;font-size: 16px;&quot;&gt;&lt;font style=&quot;font-size: 16px;&quot;&gt;10 - Classe Main&lt;/font&gt;&lt;/div&gt;" style="text;html=1;align=left;verticalAlign=middle;resizable=0;points=[];autosize=1;strokeColor=#666666;fillColor=#f5f5f5;fontColor=#333333;perimeterSpacing=0;" parent="1" vertex="1">
          <mxGeometry x="64" y="895" width="440" height="240" as="geometry" />
        </mxCell>
      </root>
    </mxGraphModel>
  </diagram>
</mxfile>
